# xmcd
#
# Track frame offsets:
#       150
#       17305
#       29447
#       42962
#       60264
#       74536
#       84913
#       100444
#       123708
#       146973
#       164459
#
# Disc length: 2482 seconds
#
# Revision: 0
# Processed by: cddbd v1.4PL0 Copyright (c) Steve Scherf et al.
# Submitted via: WhereIsIt 3.21
#
DISCID=9409b00b
DTITLE=Tûzkerék R. B. - 16 tonna...
DYEAR=1900
DGENRE=
TTITLE0=Bíbor Hold
TTITLE1=Beestél a vízbe
TTITLE2=Engedj el!
TTITLE3=Kisvárosi blues
TTITLE4=Chuck Berry nótája
TTITLE5=Fûben állva
TTITLE6=Csontváz blues
TTITLE7=Éjfélkor megszólal egy blues
TTITLE8=Macska-egér blues
TTITLE9=Mi lesz veled rock and roll?
TTITLE10=16 tonna
EXTD=
EXTT0=
EXTT1=
EXTT2=
EXTT3=
EXTT4=
EXTT5=
EXTT6=
EXTT7=
EXTT8=
EXTT9=
EXTT10=
PLAYORDER=
